<svg xmlns="http://www.w3.org/2000/svg" width="1024" height="1024" viewBox="0 0 1024 1024"><defs><linearGradient id="bg" x1="512" y1="0" x2="512" y2="1024" gradientUnits="userSpaceOnUse"><stop offset="0" stop-color="#A68AE8"/><stop offset="0.52" stop-color="#876BD0"/><stop offset="1" stop-color="#6750B8"/></linearGradient><radialGradient id="bgGlow" cx="42%" cy="26%" r="78%"><stop offset="0" stop-color="#EADFFF" stop-opacity="0.18"/><stop offset="0.58" stop-color="#A991EF" stop-opacity="0.08"/><stop offset="1" stop-color="#031824" stop-opacity="0"/></radialGradient><linearGradient id="topPage" x1="246" y1="366" x2="778" y2="278" gradientUnits="userSpaceOnUse"><stop offset="0" stop-color="#FFF6D0"/><stop offset="0.45" stop-color="#FFFFEC"/><stop offset="1" stop-color="#FFFFFF"/></linearGradient><linearGradient id="middlePage" x1="246" y1="556" x2="778" y2="468" gradientUnits="userSpaceOnUse"><stop offset="0" stop-color="#F06C75"/><stop offset="0.50" stop-color="#FFA07F"/><stop offset="1" stop-color="#FFD5A3"/></linearGradient><linearGradient id="bottomPage" x1="246" y1="746" x2="778" y2="658" gradientUnits="userSpaceOnUse"><stop offset="0" stop-color="#1469D8"/><stop offset="0.54" stop-color="#2FA6ED"/><stop offset="1" stop-color="#8BDAFF"/></linearGradient><filter id="pageShadow" x="-20%" y="-28%" width="140%" height="160%"><feDropShadow dx="0" dy="18" stdDeviation="16" flood-color="#00131D" flood-opacity="0.36"/></filter><filter id="softInset" x="-8%" y="-12%" width="116%" height="124%"><feDropShadow dx="0" dy="-3" stdDeviation="2" flood-color="#FFFFFF" flood-opacity="0.28"/></filter></defs><g transform="translate(512 0) scale(1.20 1) translate(-512 0)"><g filter="url(#pageShadow)"><path d="M 255 394 C 290 294 362 250 475 250 L 776 250 C 744 308 700 349 641 372 C 596 389 542 394 476 392 L 352 392 C 314 392 281 398 255 394 Z" fill="url(#topPage)" filter="url(#softInset)"/><path d="M 246 584 C 282 484 356 440 475 440 L 778 440 C 746 498 701 539 642 562 C 596 579 542 584 476 582 L 352 582 C 312 582 276 589 246 584 Z" fill="url(#middlePage)" filter="url(#softInset)"/><path d="M 255 774 C 290 674 362 630 475 630 L 776 630 C 744 688 700 729 641 752 C 596 769 542 774 476 772 L 352 772 C 314 772 281 778 255 774 Z" fill="url(#bottomPage)" filter="url(#softInset)"/></g><path d="M 306 360 C 346 311 404 290 476 290 L 676 290" fill="none" stroke="#FFFFFF" stroke-opacity="0.42" stroke-width="5" stroke-linecap="round"/><path d="M 306 550 C 346 501 404 480 476 480 L 676 480" fill="none" stroke="#FFFFFF" stroke-opacity="0.32" stroke-width="4" stroke-linecap="round"/><path d="M 306 740 C 346 691 404 670 476 670 L 676 670" fill="none" stroke="#FFFFFF" stroke-opacity="0.30" stroke-width="4" stroke-linecap="round"/></g></svg>